<svg width="24" height="24" viewBox="0 0 24 24" fill="none" xmlns="http://www.w3.org/2000/svg">
<g id="Icon" clip-path="url(#clip0_821_16093)">
<path id="Vector" d="M18.0356 3.21445H15.4134C15.291 3.21445 15.1736 3.16547 15.0871 3.07829C15.0005 2.9911 14.9519 2.87286 14.9519 2.74956C14.9519 2.62626 15.0005 2.50802 15.0871 2.42083C15.1736 2.33365 15.291 2.28467 15.4134 2.28467H18.0356C18.158 2.28467 18.2754 2.33365 18.3619 2.42083C18.4485 2.50802 18.4971 2.62626 18.4971 2.74956C18.4971 2.87286 18.4485 2.9911 18.3619 3.07829C18.2754 3.16547 18.158 3.21445 18.0356 3.21445Z" fill="#E5F7F8"/>
<path id="Vector_2" d="M8.58671 3.21445H5.96459C5.84218 3.21445 5.72479 3.16547 5.63823 3.07829C5.55168 2.9911 5.50305 2.87286 5.50305 2.74956C5.50305 2.62626 5.55168 2.50802 5.63823 2.42083C5.72479 2.33365 5.84218 2.28467 5.96459 2.28467H8.58671C8.70911 2.28467 8.82651 2.33365 8.91306 2.42083C8.99962 2.50802 9.04824 2.62626 9.04824 2.74956C9.04824 2.87286 8.99962 2.9911 8.91306 3.07829C8.82651 3.16547 8.70911 3.21445 8.58671 3.21445Z" fill="#E5F7F8"/>
<path id="Vector_3" d="M22.2168 23.9756H1.78333C1.31054 23.9751 0.857271 23.7857 0.522959 23.4489C0.188647 23.1122 0.000595475 22.6556 6.10352e-05 22.1794V4.08089C0.000595475 3.60467 0.188647 3.1481 0.522959 2.81136C0.857271 2.47462 1.31054 2.28521 1.78333 2.28467H3.86227C3.98468 2.28467 4.10207 2.33365 4.18863 2.42083C4.27518 2.50802 4.32381 2.62626 4.32381 2.74956C4.32381 2.87286 4.27518 2.9911 4.18863 3.07829C4.10207 3.16547 3.98468 3.21445 3.86227 3.21445H1.78333C1.55529 3.21476 1.33667 3.30614 1.17542 3.46856C1.01417 3.63099 0.923443 3.85119 0.923138 4.08089V22.1794C0.923367 22.4091 1.01407 22.6294 1.17534 22.7918C1.3366 22.9542 1.55526 23.0456 1.78333 23.0458H22.2168C22.4449 23.0456 22.6635 22.9542 22.8248 22.7918C22.9861 22.6294 23.0768 22.4091 23.077 22.1794V4.08089C23.0767 3.85119 22.986 3.63099 22.8247 3.46856C22.6635 3.30614 22.4448 3.21476 22.2168 3.21445H20.1378C20.0154 3.21445 19.898 3.16547 19.8115 3.07829C19.7249 2.9911 19.6763 2.87286 19.6763 2.74956C19.6763 2.62626 19.7249 2.50802 19.8115 2.42083C19.898 2.33365 20.0154 2.28467 20.1378 2.28467H22.2168C22.6896 2.28521 23.1429 2.47462 23.4772 2.81136C23.8115 3.1481 23.9995 3.60467 24.0001 4.08089V22.1794C23.9995 22.6556 23.8115 23.1122 23.4772 23.4489C23.1429 23.7857 22.6896 23.9751 22.2168 23.9756Z" fill="#E5F7F8"/>
<path id="Vector_4" d="M13.3111 3.21445H10.689C10.5666 3.21445 10.4492 3.16547 10.3627 3.07829C10.2761 2.9911 10.2275 2.87286 10.2275 2.74956C10.2275 2.62626 10.2761 2.50802 10.3627 2.42083C10.4492 2.33365 10.5666 2.28467 10.689 2.28467H13.3111C13.4335 2.28467 13.5509 2.33365 13.6375 2.42083C13.724 2.50802 13.7727 2.62626 13.7727 2.74956C13.7727 2.87286 13.724 2.9911 13.6375 3.07829C13.5509 3.16547 13.4335 3.21445 13.3111 3.21445Z" fill="#E5F7F8"/>
<path id="Vector_5" d="M23.5385 7.85605H0.461599C0.339192 7.85605 0.221798 7.80707 0.135243 7.71989C0.0486874 7.6327 6.10352e-05 7.51446 6.10352e-05 7.39116C6.10352e-05 7.26786 0.0486874 7.14962 0.135243 7.06243C0.221798 6.97525 0.339192 6.92627 0.461599 6.92627H23.5385C23.6609 6.92627 23.7783 6.97525 23.8649 7.06243C23.9514 7.14962 24.0001 7.26786 24.0001 7.39116C24.0001 7.51446 23.9514 7.6327 23.8649 7.71989C23.7783 7.80707 23.6609 7.85605 23.5385 7.85605Z" fill="#E5F7F8"/>
<path id="Vector_6" d="M5.65996 12.523H3.25506C3.13265 12.523 3.01525 12.474 2.9287 12.3868C2.84214 12.2996 2.79352 12.1814 2.79352 12.0581V9.63457C2.79352 9.51127 2.84214 9.39303 2.9287 9.30584C3.01525 9.21866 3.13265 9.16968 3.25506 9.16968H5.65996C5.78237 9.16968 5.89976 9.21866 5.98632 9.30584C6.07287 9.39303 6.1215 9.51127 6.1215 9.63457V12.0581C6.1215 12.1192 6.10956 12.1796 6.08637 12.236C6.06317 12.2924 6.02918 12.3437 5.98632 12.3868C5.94346 12.43 5.89258 12.4642 5.83658 12.4876C5.78059 12.511 5.72057 12.523 5.65996 12.523ZM3.71659 11.5932H5.19842V10.0995H3.71659V11.5932Z" fill="#E5F7F8"/>
<path id="Vector_7" d="M10.6884 12.523H8.28353C8.16112 12.523 8.04373 12.474 7.95717 12.3868C7.87062 12.2996 7.82199 12.1814 7.82199 12.0581V9.63457C7.82199 9.51127 7.87062 9.39303 7.95717 9.30584C8.04373 9.21866 8.16112 9.16968 8.28353 9.16968H10.6884C10.8108 9.16968 10.9282 9.21866 11.0148 9.30584C11.1013 9.39303 11.15 9.51127 11.15 9.63457V12.0581C11.15 12.1814 11.1013 12.2996 11.0148 12.3868C10.9282 12.474 10.8108 12.523 10.6884 12.523ZM8.74507 11.5932H10.2269V10.0995H8.74507V11.5932Z" fill="#E5F7F8"/>
<path id="Vector_8" d="M15.7166 12.523H13.3117C13.1893 12.523 13.0719 12.474 12.9853 12.3868C12.8988 12.2996 12.8502 12.1814 12.8502 12.0581V9.63457C12.8502 9.51127 12.8988 9.39303 12.9853 9.30584C13.0719 9.21866 13.1893 9.16968 13.3117 9.16968H15.7166C15.839 9.16968 15.9564 9.21866 16.043 9.30584C16.1295 9.39303 16.1781 9.51127 16.1781 9.63457V12.0581C16.1781 12.1814 16.1295 12.2996 16.043 12.3868C15.9564 12.474 15.839 12.523 15.7166 12.523ZM13.7732 11.5932H15.2551V10.0995H13.7732V11.5932Z" fill="#E5F7F8"/>
<path id="Vector_9" d="M20.7451 12.523H18.3402C18.2178 12.523 18.1004 12.474 18.0138 12.3868C17.9273 12.2996 17.8786 12.1814 17.8786 12.0581V9.63457C17.8786 9.51127 17.9273 9.39303 18.0138 9.30584C18.1004 9.21866 18.2178 9.16968 18.3402 9.16968H20.7451C20.8675 9.16968 20.9849 9.21866 21.0714 9.30584C21.158 9.39303 21.2066 9.51127 21.2066 9.63457V12.0581C21.2066 12.1814 21.158 12.2996 21.0714 12.3868C20.9849 12.474 20.8675 12.523 20.7451 12.523ZM18.8017 11.5932H20.2835V10.0995H18.8017V11.5932Z" fill="#E5F7F8"/>
<path id="Vector_10" d="M5.65996 17.1271H3.25506C3.13265 17.1271 3.01525 17.0781 2.9287 16.9909C2.84214 16.9037 2.79352 16.7855 2.79352 16.6622V14.2398C2.79352 14.1165 2.84214 13.9982 2.9287 13.9111C3.01525 13.8239 3.13265 13.7749 3.25506 13.7749H5.65996C5.78237 13.7749 5.89976 13.8239 5.98632 13.9111C6.07287 13.9982 6.1215 14.1165 6.1215 14.2398V16.6622C6.1215 16.7232 6.10956 16.7837 6.08637 16.8401C6.06317 16.8965 6.02918 16.9477 5.98632 16.9909C5.94346 17.0341 5.89258 17.0683 5.83658 17.0917C5.78059 17.115 5.72057 17.1271 5.65996 17.1271ZM3.71659 16.1973H5.19842V14.7047H3.71659V16.1973Z" fill="#E5F7F8"/>
<path id="Vector_11" d="M10.6884 17.1271H8.28353C8.16112 17.1271 8.04373 17.0781 7.95717 16.9909C7.87062 16.9037 7.82199 16.7855 7.82199 16.6622V14.2398C7.82199 14.1165 7.87062 13.9982 7.95717 13.9111C8.04373 13.8239 8.16112 13.7749 8.28353 13.7749H10.6884C10.8108 13.7749 10.9282 13.8239 11.0148 13.9111C11.1013 13.9982 11.15 14.1165 11.15 14.2398V16.6622C11.15 16.7855 11.1013 16.9037 11.0148 16.9909C10.9282 17.0781 10.8108 17.1271 10.6884 17.1271ZM8.74507 16.1973H10.2269V14.7047H8.74507V16.1973Z" fill="#E5F7F8"/>
<path id="Vector_12" d="M15.7166 17.1271H13.3117C13.1893 17.1271 13.0719 17.0781 12.9853 16.9909C12.8988 16.9037 12.8502 16.7855 12.8502 16.6622V14.2398C12.8502 14.1165 12.8988 13.9982 12.9853 13.9111C13.0719 13.8239 13.1893 13.7749 13.3117 13.7749H15.7166C15.839 13.7749 15.9564 13.8239 16.043 13.9111C16.1295 13.9982 16.1781 14.1165 16.1781 14.2398V16.6622C16.1781 16.7855 16.1295 16.9037 16.043 16.9909C15.9564 17.0781 15.839 17.1271 15.7166 17.1271ZM13.7732 16.1973H15.2551V14.7047H13.7732V16.1973Z" fill="#E5F7F8"/>
<path id="Vector_13" d="M20.7451 17.1271H18.3402C18.2178 17.1271 18.1004 17.0781 18.0138 16.9909C17.9273 16.9037 17.8786 16.7855 17.8786 16.6622V14.2398C17.8786 14.1165 17.9273 13.9982 18.0138 13.9111C18.1004 13.8239 18.2178 13.7749 18.3402 13.7749H20.7451C20.8675 13.7749 20.9849 13.8239 21.0714 13.9111C21.158 13.9982 21.2066 14.1165 21.2066 14.2398V16.6622C21.2066 16.7855 21.158 16.9037 21.0714 16.9909C20.9849 17.0781 20.8675 17.1271 20.7451 17.1271ZM18.8017 16.1973H20.2835V14.7047H18.8017V16.1973Z" fill="#E5F7F8"/>
<path id="Vector_14" d="M5.65996 21.7337H3.25506C3.13265 21.7337 3.01525 21.6848 2.9287 21.5976C2.84214 21.5104 2.79352 21.3921 2.79352 21.2688V18.845C2.79352 18.7217 2.84214 18.6035 2.9287 18.5163C3.01525 18.4291 3.13265 18.3801 3.25506 18.3801H5.65996C5.78237 18.3801 5.89976 18.4291 5.98632 18.5163C6.07287 18.6035 6.1215 18.7217 6.1215 18.845V21.2688C6.1215 21.3299 6.10956 21.3903 6.08637 21.4467C6.06317 21.5032 6.02918 21.5544 5.98632 21.5976C5.94346 21.6407 5.89258 21.675 5.83658 21.6983C5.78059 21.7217 5.72057 21.7337 5.65996 21.7337ZM3.71659 20.804H5.19842V19.3099H3.71659V20.804Z" fill="#E5F7F8"/>
<path id="Vector_15" d="M10.6884 21.7337H8.28353C8.16112 21.7337 8.04373 21.6848 7.95717 21.5976C7.87062 21.5104 7.82199 21.3921 7.82199 21.2688V18.845C7.82199 18.7217 7.87062 18.6035 7.95717 18.5163C8.04373 18.4291 8.16112 18.3801 8.28353 18.3801H10.6884C10.8108 18.3801 10.9282 18.4291 11.0148 18.5163C11.1013 18.6035 11.15 18.7217 11.15 18.845V21.2688C11.15 21.3921 11.1013 21.5104 11.0148 21.5976C10.9282 21.6848 10.8108 21.7337 10.6884 21.7337ZM8.74507 20.804H10.2269V19.3099H8.74507V20.804Z" fill="#E5F7F8"/>
<path id="Vector_16" d="M15.7166 21.7337H13.3117C13.1893 21.7337 13.0719 21.6848 12.9853 21.5976C12.8988 21.5104 12.8502 21.3921 12.8502 21.2688V18.845C12.8502 18.7217 12.8988 18.6035 12.9853 18.5163C13.0719 18.4291 13.1893 18.3801 13.3117 18.3801H15.7166C15.839 18.3801 15.9564 18.4291 16.043 18.5163C16.1295 18.6035 16.1781 18.7217 16.1781 18.845V21.2688C16.1781 21.3921 16.1295 21.5104 16.043 21.5976C15.9564 21.6848 15.839 21.7337 15.7166 21.7337ZM13.7732 20.804H15.2551V19.3099H13.7732V20.804Z" fill="#E5F7F8"/>
<path id="Vector_17" d="M4.94489 5.5125H4.88201C4.48935 5.51204 4.11289 5.35474 3.83521 5.07509C3.55753 4.79545 3.40129 4.41629 3.40076 4.02078V1.51589C3.40129 1.12038 3.55753 0.74122 3.83521 0.461576C4.11289 0.181933 4.48935 0.0246312 4.88201 0.0241699H4.94489C5.33758 0.0245544 5.71407 0.181832 5.99177 0.461492C6.26947 0.741152 6.42568 1.12035 6.42614 1.51589V4.02078C6.42568 4.41632 6.26947 4.79552 5.99177 5.07518C5.71407 5.35484 5.33758 5.51212 4.94489 5.5125ZM4.88201 0.953952C4.73407 0.954106 4.59223 1.01335 4.48759 1.11869C4.38295 1.22403 4.32406 1.36687 4.32383 1.51589V4.02078C4.32406 4.16979 4.38295 4.31264 4.48759 4.41798C4.59223 4.52332 4.73407 4.58256 4.88201 4.58272H4.94489C5.09283 4.58256 5.23467 4.52332 5.33931 4.41798C5.44395 4.31264 5.50284 4.16979 5.50306 4.02078V1.51589C5.50284 1.36687 5.44395 1.22403 5.33931 1.11869C5.23467 1.01335 5.09283 0.954106 4.94489 0.953952H4.88201Z" fill="#E5F7F8"/>
<path id="Vector_18" d="M9.66928 5.5125H9.60582C9.21316 5.51204 8.83671 5.35474 8.55903 5.07509C8.28135 4.79545 8.12511 4.41629 8.12457 4.02078V1.51589C8.12511 1.12038 8.28135 0.74122 8.55903 0.461576C8.83671 0.181933 9.21316 0.0246312 9.60582 0.0241699H9.66871C10.0614 0.0246312 10.4378 0.181933 10.7155 0.461576C10.9932 0.74122 11.1494 1.12038 11.15 1.51589V4.02078C11.1494 4.41619 10.9933 4.79526 10.7157 5.07489C10.4382 5.35452 10.0618 5.51188 9.66928 5.5125ZM9.60582 0.953952C9.45788 0.954106 9.31604 1.01335 9.21141 1.11869C9.10677 1.22403 9.04788 1.36687 9.04765 1.51589V4.02078C9.04788 4.16979 9.10677 4.31264 9.21141 4.41798C9.31604 4.52332 9.45788 4.58256 9.60582 4.58272H9.66871C9.81665 4.58256 9.95849 4.52332 10.0631 4.41798C10.1678 4.31264 10.2267 4.16979 10.2269 4.02078V1.51589C10.2267 1.36687 10.1678 1.22403 10.0631 1.11869C9.95849 1.01335 9.81665 0.954106 9.66871 0.953952H9.60582Z" fill="#E5F7F8"/>
<path id="Vector_19" d="M14.3943 5.5125H14.3308C13.9382 5.51204 13.5617 5.35474 13.284 5.07509C13.0064 4.79545 12.8501 4.41629 12.8496 4.02078V1.51589C12.8501 1.12038 13.0064 0.74122 13.284 0.461576C13.5617 0.181933 13.9382 0.0246312 14.3308 0.0241699H14.3943C14.787 0.0246312 15.1634 0.181933 15.4411 0.461576C15.7188 0.74122 15.875 1.12038 15.8755 1.51589V4.02078C15.875 4.41629 15.7188 4.79545 15.4411 5.07509C15.1634 5.35474 14.787 5.51204 14.3943 5.5125ZM14.3308 0.953952C14.1829 0.954106 14.041 1.01335 13.9364 1.11869C13.8318 1.22403 13.7729 1.36687 13.7727 1.51589V4.02078C13.7729 4.16979 13.8318 4.31264 13.9364 4.41798C14.041 4.52332 14.1829 4.58256 14.3308 4.58272H14.3943C14.5422 4.58256 14.6841 4.52332 14.7887 4.41798C14.8933 4.31264 14.9522 4.16979 14.9525 4.02078V1.51589C14.9522 1.36687 14.8933 1.22403 14.7887 1.11869C14.6841 1.01335 14.5422 0.954106 14.3943 0.953952H14.3308Z" fill="#E5F7F8"/>
<path id="Vector_20" d="M19.1181 5.5125H19.0553C18.6626 5.51212 18.2861 5.35484 18.0084 5.07518C17.7307 4.79552 17.5745 4.41632 17.574 4.02078V1.51589C17.5745 1.12035 17.7307 0.741152 18.0084 0.461492C18.2861 0.181832 18.6626 0.0245544 19.0553 0.0241699H19.1181C19.5108 0.0246312 19.8873 0.181933 20.1649 0.461576C20.4426 0.74122 20.5989 1.12038 20.5994 1.51589V4.02078C20.5989 4.41629 20.4426 4.79545 20.1649 5.07509C19.8873 5.35474 19.5108 5.51204 19.1181 5.5125ZM19.0553 0.953952C18.9073 0.954106 18.7655 1.01335 18.6608 1.11869C18.5562 1.22403 18.4973 1.36687 18.4971 1.51589V4.02078C18.4973 4.16979 18.5562 4.31264 18.6608 4.41798C18.7655 4.52332 18.9073 4.58256 19.0553 4.58272H19.1181C19.2661 4.58256 19.4079 4.52332 19.5126 4.41798C19.6172 4.31264 19.6761 4.16979 19.6763 4.02078V1.51589C19.6761 1.36687 19.6172 1.22403 19.5126 1.11869C19.4079 1.01335 19.2661 0.954106 19.1181 0.953952H19.0553Z" fill="#E5F7F8"/>
</g>
<defs>
<clipPath id="clip0_821_16093">
<rect width="24" height="24" fill="white"/>
</clipPath>
</defs>
</svg>
