<svg width="195" height="194" viewBox="0 0 195 194" fill="none" xmlns="http://www.w3.org/2000/svg">
<g id="Group">
<path id="Fill 1" fill-rule="evenodd" clip-rule="evenodd" d="M93.7961 0.0744019C146.518 -1.96747 190.49 38.2619 194.478 89.5328C194.796 93.6256 191.592 97.1365 187.486 97.1365C183.81 97.1365 180.786 94.2945 180.501 90.6304C177.057 46.3593 138.775 11.7087 93.1152 14.1411C52.6594 16.2941 16.7942 52.1594 14.6401 92.6152C12.2087 138.275 46.8583 176.557 91.1294 180.001C94.7935 180.286 97.6365 183.31 97.6365 186.986C97.6365 191.183 94.2157 194.304 90.0318 193.978C38.762 189.99 -1.46745 146.02 0.574417 93.2991C2.52615 42.8854 43.3824 2.02814 93.7961 0.0744019Z" fill="#EBF7F2"/>
<path id="Fill 1_2" fill-rule="evenodd" clip-rule="evenodd" d="M101.204 193.927C48.482 195.969 4.5103 155.74 0.521712 104.469C0.204266 100.376 3.40776 96.8651 7.51351 96.8651C11.1897 96.8651 14.2139 99.7071 14.4993 103.371C17.9431 147.642 56.2248 182.293 101.885 179.86C142.341 177.707 178.206 141.842 180.36 101.386C182.791 55.7264 148.142 17.4447 103.871 14.0009C100.206 13.7155 97.3635 10.6913 97.3635 7.01511C97.3635 2.81823 100.784 -0.302146 104.968 0.0233102C156.238 4.0119 196.467 47.9815 194.426 100.702C192.474 151.116 151.618 191.973 101.204 193.927Z" fill="#36B37E"/>
<path id="Oval" fill-rule="evenodd" clip-rule="evenodd" d="M97.5 140C121.248 140 140.5 120.748 140.5 97C140.5 73.2518 121.248 54 97.5 54C73.7518 54 54.5 73.2518 54.5 97C54.5 120.748 73.7518 140 97.5 140Z" fill="#36B37E"/>
</g>
</svg>
