<svg width="24" height="24" viewBox="0 0 24 24" fill="none" xmlns="http://www.w3.org/2000/svg">
<g id="icon">
<g id="Icon">
<path d="M10 2.25403C9.58579 2.25403 9.25 2.58981 9.25 3.00403V3.75403H5C4.58579 3.75403 4.25 4.08981 4.25 4.50403C4.25 4.91824 4.58579 5.25403 5 5.25403H19C19.4142 5.25403 19.75 4.91824 19.75 4.50403C19.75 4.08981 19.4142 3.75403 19 3.75403H14.75V3.00403C14.75 2.58981 14.4142 2.25403 14 2.25403H10Z" fill="#00ABB6"/>
<path d="M10 10.654C10.4142 10.654 10.75 10.9898 10.75 11.404L10.75 18.404C10.75 18.8182 10.4142 19.154 10 19.154C9.58579 19.154 9.25 18.8182 9.25 18.404L9.25 11.404C9.25 10.9898 9.58579 10.654 10 10.654Z" fill="#00ABB6"/>
<path d="M14.75 11.404C14.75 10.9898 14.4142 10.654 14 10.654C13.5858 10.654 13.25 10.9898 13.25 11.404V18.404C13.25 18.8182 13.5858 19.154 14 19.154C14.4142 19.154 14.75 18.8182 14.75 18.404V11.404Z" fill="#00ABB6"/>
<path fill-rule="evenodd" clip-rule="evenodd" d="M5.99143 7.9212C6.03363 7.54138 6.35468 7.25403 6.73684 7.25403H17.2632C17.6453 7.25403 17.9664 7.54138 18.0086 7.9212L18.2087 9.72255C18.5715 12.9879 18.5715 16.2833 18.2087 19.5487L18.189 19.726C18.045 21.0222 17.0405 22.0557 15.7489 22.2365C13.2618 22.5847 10.7382 22.5847 8.25108 22.2365C6.95954 22.0557 5.955 21.0222 5.81098 19.726L5.79128 19.5487C5.42846 16.2833 5.42846 12.9879 5.79128 9.72255L5.99143 7.9212ZM7.40812 8.75403L7.2821 9.8882C6.93152 13.0434 6.93152 16.2278 7.2821 19.383L7.30181 19.5603C7.37011 20.1751 7.84652 20.6652 8.45905 20.751C10.8082 21.0799 13.1918 21.0799 15.5409 20.751C16.1535 20.6652 16.6299 20.1751 16.6982 19.5604L16.7179 19.383C17.0685 16.2278 17.0685 13.0434 16.7179 9.8882L16.5919 8.75403H7.40812Z" fill="#00ABB6"/>
<path d="M10 2.25403C9.58579 2.25403 9.25 2.58981 9.25 3.00403V3.75403H5C4.58579 3.75403 4.25 4.08981 4.25 4.50403C4.25 4.91824 4.58579 5.25403 5 5.25403H19C19.4142 5.25403 19.75 4.91824 19.75 4.50403C19.75 4.08981 19.4142 3.75403 19 3.75403H14.75V3.00403C14.75 2.58981 14.4142 2.25403 14 2.25403H10Z" stroke="#00ABB6" stroke-width="0.5" stroke-linecap="round" stroke-linejoin="round"/>
<path d="M10 10.654C10.4142 10.654 10.75 10.9898 10.75 11.404L10.75 18.404C10.75 18.8182 10.4142 19.154 10 19.154C9.58579 19.154 9.25 18.8182 9.25 18.404L9.25 11.404C9.25 10.9898 9.58579 10.654 10 10.654Z" stroke="#00ABB6" stroke-width="0.5" stroke-linecap="round" stroke-linejoin="round"/>
<path d="M14.75 11.404C14.75 10.9898 14.4142 10.654 14 10.654C13.5858 10.654 13.25 10.9898 13.25 11.404V18.404C13.25 18.8182 13.5858 19.154 14 19.154C14.4142 19.154 14.75 18.8182 14.75 18.404V11.404Z" stroke="#00ABB6" stroke-width="0.5" stroke-linecap="round" stroke-linejoin="round"/>
<path fill-rule="evenodd" clip-rule="evenodd" d="M5.99143 7.9212C6.03363 7.54138 6.35468 7.25403 6.73684 7.25403H17.2632C17.6453 7.25403 17.9664 7.54138 18.0086 7.9212L18.2087 9.72255C18.5715 12.9879 18.5715 16.2833 18.2087 19.5487L18.189 19.726C18.045 21.0222 17.0405 22.0557 15.7489 22.2365C13.2618 22.5847 10.7382 22.5847 8.25108 22.2365C6.95954 22.0557 5.955 21.0222 5.81098 19.726L5.79128 19.5487C5.42846 16.2833 5.42846 12.9879 5.79128 9.72255L5.99143 7.9212ZM7.40812 8.75403L7.2821 9.8882C6.93152 13.0434 6.93152 16.2278 7.2821 19.383L7.30181 19.5603C7.37011 20.1751 7.84652 20.6652 8.45905 20.751C10.8082 21.0799 13.1918 21.0799 15.5409 20.751C16.1535 20.6652 16.6299 20.1751 16.6982 19.5604L16.7179 19.383C17.0685 16.2278 17.0685 13.0434 16.7179 9.8882L16.5919 8.75403H7.40812Z" stroke="#00ABB6" stroke-width="0.5" stroke-linecap="round" stroke-linejoin="round"/>
</g>
</g>
</svg>
