<svg width="24" height="24" viewBox="0 0 24 24" fill="none" xmlns="http://www.w3.org/2000/svg">
<g id="icon">
<path id="Ellipse 65_light" d="M15.5 12C15.5 13.933 13.933 15.5 12 15.5C10.067 15.5 8.5 13.933 8.5 12C8.5 10.067 10.067 8.5 12 8.5C13.933 8.5 15.5 10.067 15.5 12Z" stroke="#2F2F2F"/>
<path id="Ellipse 66_light" d="M20.188 10.9343C20.5762 11.4056 20.7703 11.6412 20.7703 12C20.7703 12.3588 20.5762 12.5944 20.188 13.0657C18.7679 14.7899 15.6357 18 12 18C8.36427 18 5.23206 14.7899 3.81197 13.0657C3.42381 12.5944 3.22973 12.3588 3.22973 12C3.22973 11.6412 3.42381 11.4056 3.81197 10.9343C5.23206 9.21014 8.36427 6 12 6C15.6357 6 18.7679 9.21014 20.188 10.9343Z" stroke="#2F2F2F"/>
</g>
</svg>
