<svg width="20" height="20" viewBox="0 0 20 20" fill="none" xmlns="http://www.w3.org/2000/svg">
<g id="folder">
<path id="Vector 240" d="M1 9.99976H19" stroke="white" stroke-miterlimit="1.41421"/>
<path id="Rectangle 4017" d="M1 3.4C1 2.55992 1 2.13988 1.16349 1.81901C1.3073 1.53677 1.53677 1.3073 1.81901 1.16349C2.13988 1 2.55992 1 3.4 1H7.13327C7.52261 1 7.71728 1 7.89282 1.05512C8.04817 1.10391 8.19198 1.1838 8.31547 1.28994C8.455 1.40987 8.55784 1.57516 8.76351 1.90574L10.0365 3.95181C10.2422 4.28239 10.345 4.44768 10.4845 4.56761C10.608 4.67374 10.7518 4.75364 10.9072 4.80243C11.0827 4.85755 11.2774 4.85755 11.6667 4.85755H16.6C17.4401 4.85755 17.8601 4.85755 18.181 5.02104C18.4632 5.16485 18.6927 5.39432 18.8365 5.67656C19 5.99743 19 6.41747 19 7.25755V16.6C19 17.4401 19 17.8601 18.8365 18.181C18.6927 18.4632 18.4632 18.6927 18.181 18.8365C17.8601 19 17.4401 19 16.6 19H3.4C2.55992 19 2.13988 19 1.81901 18.8365C1.53677 18.6927 1.3073 18.4632 1.16349 18.181C1 17.8601 1 17.4401 1 16.6V3.4Z" stroke="white"/>
</g>
</svg>
