<svg width="24" height="24" viewBox="0 0 24 24" fill="none" xmlns="http://www.w3.org/2000/svg">
<g id="icon">
<path id="Subtract" d="M14.1363 3.36144L14.6338 3.31169L14.1363 3.36144ZM13.9839 2.54161L13.5395 2.7708V2.77081L13.9839 2.54161ZM14.4312 4.81793L14.0336 5.12119L14.0336 5.12119L14.4312 4.81793ZM15.3596 5.20248L15.4262 5.69802L15.3596 5.20248ZM16.598 4.38113L16.9146 4.76811V4.76811L16.598 4.38113ZM17.2854 3.90918L17.4376 4.38547H17.4376L17.2854 3.90918ZM17.9873 3.94419L17.7885 4.40297L17.7885 4.40297L17.9873 3.94419ZM18.6244 4.48219L18.2708 4.83574L18.2826 4.84752L18.2951 4.85848L18.6244 4.48219ZM18.6244 4.4822L18.978 4.12865L18.9662 4.11687L18.9537 4.10591L18.6244 4.4822ZM19.5179 5.37567L19.1643 5.72922L19.5179 5.37567ZM20.0559 6.01275L20.5147 5.81396L20.5147 5.81396L20.0559 6.01275ZM20.0909 6.71464L20.5672 6.8668V6.8668L20.0909 6.71464ZM19.619 7.40209L19.9482 7.77838L19.9796 7.75095L20.0059 7.71871L19.619 7.40209ZM19.6189 7.4021L19.2897 7.02581L19.2583 7.05324L19.232 7.08548L19.6189 7.4021ZM18.7976 8.64056L19.2931 8.70721V8.70721L18.7976 8.64056ZM19.1821 9.56893L19.4854 9.1714L19.1821 9.56893ZM20.6387 9.86385L20.6884 9.36633L20.6387 9.86385ZM21.4585 10.0162L21.6877 9.57187L21.6877 9.57187L21.4585 10.0162ZM21.9301 10.5373L22.395 10.3534V10.3534L21.9301 10.5373ZM21.9301 13.4626L21.4651 13.2788L21.4651 13.2788L21.9301 13.4626ZM21.4584 13.9838L21.2293 13.5394L21.4584 13.9838ZM20.6388 14.1361L20.589 13.6386L20.6388 14.1361ZM19.1827 14.4309L19.4859 14.8285V14.8285L19.1827 14.4309ZM18.798 15.3596L18.3025 15.4264V15.4264L18.798 15.3596ZM19.6191 16.5976L19.2321 16.9142V16.9142L19.6191 16.5976ZM20.0909 17.2848L19.6146 17.437L19.6146 17.437L20.0909 17.2848ZM20.0559 17.9869L19.5971 17.7881L19.5971 17.7881L20.0559 17.9869ZM19.518 18.6238L19.8716 18.9773L19.518 18.6238ZM18.6245 19.5174L18.2709 19.1638L18.6245 19.5174ZM17.9874 20.0554L17.7886 19.5966L17.9874 20.0554ZM17.2855 20.0904L17.1333 20.5667H17.1333L17.2855 20.0904ZM16.598 19.6184L16.9147 19.2314L16.8957 19.216L16.8754 19.2024L16.598 19.6184ZM16.598 19.6184L16.2814 20.0054L16.3003 20.0209L16.3207 20.0344L16.598 19.6184ZM15.3596 18.7971L15.4263 18.3015H15.4263L15.3596 18.7971ZM14.4312 19.1816L14.0337 18.8784H14.0337L14.4312 19.1816ZM14.1363 20.6383L13.6388 20.5886L14.1363 20.6383ZM13.9838 21.4585L13.5395 21.2292L13.5395 21.2292L13.9838 21.4585ZM13.4629 21.9299L13.279 21.465H13.279L13.4629 21.9299ZM10.5374 21.9299L10.7213 21.465L10.7213 21.465L10.5374 21.9299ZM10.0164 21.4584L10.4607 21.2292L10.0164 21.4584ZM9.86398 20.6385L9.36646 20.6883L9.86398 20.6385ZM9.56904 19.182L9.17151 19.4853H9.17151L9.56904 19.182ZM8.64069 18.7975L8.70734 19.293H8.70734L8.64069 18.7975ZM7.4022 19.6189L7.71882 20.0058H7.71882L7.4022 19.6189ZM6.71471 20.0908L6.86685 20.5671L6.86685 20.5671L6.71471 20.0908ZM6.01284 20.0558L5.81406 20.5146H5.81406L6.01284 20.0558ZM5.37573 19.5178L5.72928 19.1642H5.72928L5.37573 19.5178ZM4.48229 18.6243L4.12121 18.9704L4.12874 18.9779L4.48229 18.6243ZM4.48227 18.6243L4.84335 18.2783L4.83583 18.2708L4.48227 18.6243ZM3.94426 17.9873L4.40305 17.7885H4.40305L3.94426 17.9873ZM3.90926 17.2854L4.38554 17.4375H4.38554L3.90926 17.2854ZM4.38123 16.5979L4.76821 16.9145L4.38123 16.5979ZM5.2026 15.3594L5.69813 15.4261H5.69813L5.2026 15.3594ZM4.81805 14.4311L4.51478 14.8286L4.51478 14.8286L4.81805 14.4311ZM3.36155 14.1361L3.3118 14.6337H3.3118L3.36155 14.1361ZM2.54173 13.9838L2.31254 14.4281H2.31254L2.54173 13.9838ZM2.07017 13.4627L1.60519 13.6465H1.60519L2.07017 13.4627ZM2.07021 10.5372L2.53516 10.7211L2.53516 10.7211L2.07021 10.5372ZM2.54165 10.0163L2.77088 10.4606H2.77088L2.54165 10.0163ZM3.36167 9.86384V9.36384H3.33673L3.31192 9.36633L3.36167 9.86384ZM3.36168 9.86384V10.3638H3.38662L3.41143 10.3614L3.36168 9.86384ZM4.81854 9.56881L4.51522 9.17132L4.51522 9.17132L4.81854 9.56881ZM5.20299 8.64066L4.70744 8.70725L5.20299 8.64066ZM4.3814 7.40182L4.76838 7.0852L4.75259 7.0659L4.73495 7.04827L4.3814 7.40182ZM4.3814 7.40182L3.99442 7.71843L4.01021 7.73774L4.02784 7.75537L4.3814 7.40182ZM3.90926 6.71405L4.38557 6.56197V6.56197L3.90926 6.71405ZM3.94425 6.01243L3.48544 5.81371L3.94425 6.01243ZM6.01289 3.94373L5.8141 3.48494H5.8141L6.01289 3.94373ZM6.71475 3.90872L6.5626 4.38501H6.5626L6.71475 3.90872ZM7.40232 4.38076L7.0857 4.76774V4.76774L7.40232 4.38076ZM8.64056 5.20207L8.7073 4.70654H8.7073L8.64056 5.20207ZM9.56919 4.81742L9.96677 5.12062V5.12062L9.56919 4.81742ZM9.86399 3.36131L10.3615 3.41106L10.364 3.38625V3.36131H9.86399ZM9.86399 3.36131L9.36647 3.31155L9.36399 3.33637V3.36131H9.86399ZM10.0163 2.5417L9.57191 2.31256L9.57191 2.31256L10.0163 2.5417ZM10.5375 2.07001L10.7213 2.535V2.535L10.5375 2.07001ZM13.4628 2.07005L13.6467 1.60507L13.6467 1.60507L13.4628 2.07005ZM14.6338 3.31169C14.6128 3.10146 14.5948 2.91945 14.5697 2.7696C14.5437 2.61482 14.5052 2.46166 14.4283 2.31242L13.5395 2.77081C13.5499 2.79088 13.5659 2.8308 13.5835 2.93519C13.6018 3.04449 13.6164 3.18775 13.6387 3.41119L14.6338 3.31169ZM14.8287 4.51467C14.8174 4.49983 14.7807 4.43872 14.7422 4.22451C14.7045 4.01507 14.6757 3.73051 14.6338 3.31169L13.6387 3.41119C13.679 3.81323 13.7117 4.14432 13.758 4.40162C13.8034 4.65413 13.8732 4.91083 14.0336 5.12119L14.8287 4.51467ZM15.2929 4.70694C15.1149 4.73089 14.9377 4.65749 14.8287 4.51467L14.0336 5.12119C14.3605 5.54967 14.8921 5.76987 15.4262 5.69802L15.2929 4.70694ZM16.2814 3.99415C15.9556 4.26069 15.734 4.44152 15.5593 4.56296C15.3805 4.68717 15.3114 4.70446 15.2929 4.70694L15.4262 5.69802C15.6884 5.66274 15.9193 5.53055 16.13 5.38412C16.3446 5.23493 16.6019 5.02396 16.9146 4.76811L16.2814 3.99415ZM17.1333 3.4329C16.9733 3.484 16.8378 3.56512 16.71 3.65619C16.5863 3.74436 16.4449 3.86037 16.2814 3.99415L16.9146 4.76811C17.0884 4.62591 17.2 4.53493 17.2903 4.47062C17.3765 4.4092 17.4161 4.39234 17.4376 4.38547L17.1333 3.4329ZM18.1861 3.48541C17.8531 3.3411 17.479 3.32244 17.1333 3.4329L17.4376 4.38547C17.5528 4.34865 17.6775 4.35487 17.7885 4.40297L18.1861 3.48541ZM18.978 4.12864C18.8286 3.97925 18.6994 3.84975 18.5851 3.7497C18.4669 3.64637 18.3402 3.55217 18.1861 3.48541L17.7885 4.40297C17.8093 4.41195 17.847 4.43267 17.9267 4.50236C18.0101 4.57533 18.1121 4.67696 18.2708 4.83574L18.978 4.12864ZM18.9537 4.10591L18.9537 4.1059L18.2951 4.85848L18.2952 4.85849L18.9537 4.10591ZM19.8714 5.02211L18.978 4.12865L18.2709 4.83575L19.1643 5.72922L19.8714 5.02211ZM20.5147 5.81396C20.4479 5.65988 20.3537 5.53314 20.2504 5.41502C20.1503 5.30065 20.0208 5.17151 19.8714 5.02211L19.1643 5.72922C19.3231 5.88801 19.4247 5.99001 19.4977 6.07343C19.5674 6.1531 19.5881 6.19082 19.5971 6.21155L20.5147 5.81396ZM20.5672 6.8668C20.6776 6.52106 20.659 6.147 20.5147 5.81396L19.5971 6.21154C19.6452 6.32256 19.6514 6.44724 19.6146 6.56249L20.5672 6.8668ZM20.0059 7.71871C20.1397 7.55519 20.2557 7.41381 20.3439 7.29005C20.435 7.16224 20.5161 7.02676 20.5672 6.8668L19.6146 6.56249C19.6077 6.58401 19.5909 6.6236 19.5295 6.7098C19.4652 6.80007 19.3742 6.91168 19.232 7.08548L20.0059 7.71871ZM19.9482 7.77839L19.9482 7.77838L19.2897 7.0258L19.2897 7.02581L19.9482 7.77839ZM19.2931 8.70721C19.2956 8.68872 19.3129 8.61958 19.4371 8.44084C19.5586 8.2661 19.7394 8.0445 20.0059 7.71872L19.232 7.08548C18.9761 7.3982 18.7651 7.65547 18.6159 7.87015C18.4695 8.08085 18.3373 8.31168 18.302 8.5739L19.2931 8.70721ZM19.4854 9.1714C19.3426 9.06244 19.2692 8.88524 19.2931 8.70721L18.302 8.5739C18.2302 9.108 18.4504 9.63959 18.8789 9.96645L19.4854 9.1714ZM20.6884 9.36633C20.2696 9.32445 19.985 9.29562 19.7756 9.25793C19.5613 9.21938 19.5002 9.18271 19.4854 9.1714L18.8789 9.96645C19.0892 10.1269 19.3459 10.1967 19.5984 10.2421C19.8558 10.2884 20.1869 10.3212 20.5889 10.3614L20.6884 9.36633ZM21.6877 9.57187C21.5385 9.49489 21.3853 9.45645 21.2305 9.43046C21.0807 9.4053 20.8986 9.38736 20.6884 9.36633L20.5889 10.3614C20.8124 10.3837 20.9556 10.3983 21.0649 10.4167C21.1693 10.4342 21.2092 10.4503 21.2293 10.4606L21.6877 9.57187ZM22.395 10.3534C22.2616 10.0159 22.0103 9.73825 21.6877 9.57187L21.2293 10.4606C21.3368 10.5161 21.4206 10.6086 21.4651 10.7211L22.395 10.3534ZM22.5001 11.3682C22.5001 11.157 22.5004 10.9741 22.4903 10.8224C22.4798 10.6658 22.4568 10.5096 22.395 10.3534L21.4651 10.7211C21.4734 10.7421 21.4854 10.7835 21.4925 10.8891C21.4999 10.9997 21.5001 11.1437 21.5001 11.3682H22.5001ZM22.5001 12.6319V11.3682H21.5001V12.6319H22.5001ZM22.3951 13.6464C22.4568 13.4903 22.4798 13.3341 22.4903 13.1775C22.5004 13.026 22.5001 12.8431 22.5001 12.6319H21.5001C21.5001 12.8564 21.4999 13.0003 21.4925 13.1109C21.4854 13.2165 21.4734 13.2578 21.4651 13.2788L22.3951 13.6464ZM21.6876 14.4282C22.0103 14.2618 22.2616 13.984 22.3951 13.6464L21.4651 13.2788C21.4206 13.3914 21.3368 13.4839 21.2293 13.5394L21.6876 14.4282ZM20.6885 14.6337C20.8987 14.6126 21.0807 14.5947 21.2305 14.5695C21.3852 14.5436 21.5384 14.5051 21.6876 14.4282L21.2293 13.5394C21.2092 13.5498 21.1693 13.5658 21.0649 13.5833C20.9556 13.6017 20.8124 13.6163 20.589 13.6386L20.6885 14.6337ZM19.4859 14.8285C19.5007 14.8172 19.5618 14.7805 19.7759 14.742C19.9853 14.7043 20.2698 14.6755 20.6885 14.6337L20.589 13.6386C20.1871 13.6788 19.8561 13.7115 19.5989 13.7578C19.3464 13.8032 19.0898 13.8729 18.8795 14.0333L19.4859 14.8285ZM19.2935 15.2929C19.2695 15.1148 19.3429 14.9375 19.4859 14.8285L18.8795 14.0333C18.4508 14.3602 18.2305 14.8921 18.3025 15.4264L19.2935 15.2929ZM20.0061 16.281C19.7396 15.9553 19.5589 15.7338 19.4375 15.5591C19.3133 15.3805 19.296 15.3113 19.2935 15.2929L18.3025 15.4264C18.3378 15.6885 18.4699 15.9192 18.6163 16.1298C18.7655 16.3444 18.9764 16.6016 19.2321 16.9142L20.0061 16.281ZM20.5672 17.1326C20.5161 16.9727 20.435 16.8372 20.3439 16.7095C20.2558 16.5858 20.1398 16.4444 20.0061 16.281L19.2321 16.9142C19.3743 17.0879 19.4652 17.1995 19.5295 17.2897C19.5909 17.3759 19.6078 17.4155 19.6146 17.437L20.5672 17.1326ZM20.5146 18.1858C20.6591 17.8526 20.6777 17.4784 20.5672 17.1326L19.6146 17.437C19.6515 17.5523 19.6453 17.677 19.5971 17.7881L20.5146 18.1858ZM19.8716 18.9773C20.0209 18.828 20.1504 18.6989 20.2504 18.5846C20.3537 18.4665 20.4479 18.3398 20.5146 18.1858L19.5971 17.7881C19.5882 17.8088 19.5674 17.8465 19.4978 17.9261C19.4248 18.0095 19.3232 18.1115 19.1645 18.2702L19.8716 18.9773ZM18.978 19.8709L19.8716 18.9773L19.1645 18.2702L18.2709 19.1638L18.978 19.8709ZM18.978 19.8709L18.978 19.8709L18.2709 19.1638L18.2709 19.1638L18.978 19.8709ZM18.1862 20.5141C18.3403 20.4474 18.467 20.3532 18.5851 20.2499C18.6995 20.1498 18.8286 20.0203 18.978 19.8709L18.2709 19.1638C18.1121 19.3226 18.0101 19.4242 17.9267 19.4972C17.847 19.5669 17.8093 19.5876 17.7886 19.5966L18.1862 20.5141ZM17.1333 20.5667C17.4791 20.6771 17.8531 20.6585 18.1862 20.5141L17.7886 19.5966C17.6776 19.6447 17.5529 19.6509 17.4376 19.6141L17.1333 20.5667ZM16.2814 20.0054C16.4449 20.1392 16.5863 20.2552 16.7101 20.3434C16.8379 20.4344 16.9734 20.5156 17.1333 20.5667L17.4376 19.6141C17.4161 19.6072 17.3765 19.5904 17.2903 19.5289C17.2001 19.4646 17.0885 19.3736 16.9147 19.2314L16.2814 20.0054ZM16.3207 20.0344L16.3207 20.0344L16.8754 19.2024L16.8754 19.2024L16.3207 20.0344ZM15.293 19.2926C15.3114 19.2951 15.3806 19.3124 15.5593 19.4366C15.7341 19.558 15.9556 19.7389 16.2814 20.0054L16.9146 19.2314C16.6019 18.9756 16.3447 18.7646 16.13 18.6154C15.9193 18.469 15.6885 18.3368 15.4263 18.3015L15.293 19.2926ZM14.8288 19.4849C14.9377 19.3421 15.1149 19.2687 15.293 19.2926L15.4263 18.3015C14.8922 18.2297 14.3606 18.4499 14.0337 18.8784L14.8288 19.4849ZM14.6338 20.6881C14.6757 20.2692 14.7045 19.9846 14.7422 19.7751C14.7808 19.5608 14.8174 19.4997 14.8288 19.4849L14.0337 18.8784C13.8732 19.0887 13.8035 19.3455 13.758 19.598C13.7117 19.8553 13.679 20.1865 13.6388 20.5886L14.6338 20.6881ZM14.4282 21.6877C14.5052 21.5385 14.5437 21.3852 14.5697 21.2304C14.5948 21.0805 14.6128 20.8984 14.6338 20.6881L13.6388 20.5886C13.6164 20.8121 13.6018 20.9554 13.5835 21.0648C13.5659 21.1692 13.5498 21.2092 13.5395 21.2292L14.4282 21.6877ZM13.6468 22.3949C13.9842 22.2614 14.2618 22.0102 14.4282 21.6877L13.5395 21.2292C13.484 21.3367 13.3915 21.4205 13.279 21.465L13.6468 22.3949ZM12.6318 22.5C12.8431 22.5 13.026 22.5003 13.1777 22.4901C13.3343 22.4797 13.4906 22.4566 13.6468 22.3949L13.279 21.465C13.258 21.4733 13.2167 21.4853 13.111 21.4923C13.0004 21.4997 12.8564 21.5 12.6318 21.5V22.5ZM11.3684 22.5H12.6318V21.5H11.3684V22.5ZM10.3536 22.3949C10.5097 22.4567 10.666 22.4797 10.8226 22.4901C10.9742 22.5003 11.1571 22.5 11.3684 22.5V21.5C11.1438 21.5 10.9998 21.4997 10.8892 21.4924C10.7836 21.4853 10.7423 21.4733 10.7213 21.465L10.3536 22.3949ZM9.57199 21.6876C9.73836 22.0102 10.0161 22.2615 10.3536 22.3949L10.7213 21.465C10.6088 21.4205 10.5162 21.3367 10.4607 21.2292L9.57199 21.6876ZM9.36646 20.6883C9.38748 20.8985 9.40542 21.0805 9.43059 21.2304C9.45657 21.3852 9.49501 21.5384 9.57199 21.6876L10.4607 21.2292C10.4504 21.2091 10.4343 21.1692 10.4168 21.0648C10.3984 20.9555 10.3838 20.8122 10.3615 20.5888L9.36646 20.6883ZM9.17151 19.4853C9.18283 19.5001 9.2195 19.5612 9.25805 19.7754C9.29575 19.9849 9.32457 20.2695 9.36646 20.6883L10.3615 20.5888C10.3213 20.1867 10.2885 19.8556 10.2422 19.5983C10.1968 19.3458 10.127 19.0891 9.96657 18.8787L9.17151 19.4853ZM8.70734 19.293C8.88537 19.2691 9.06256 19.3425 9.17151 19.4853L9.96657 18.8787C9.6397 18.4503 9.10813 18.2301 8.57404 18.3019L8.70734 19.293ZM7.71882 20.0058C8.0446 19.7393 8.26621 19.5584 8.44096 19.437C8.6197 19.3128 8.68884 19.2955 8.70734 19.293L8.57404 18.3019C8.31182 18.3372 8.08097 18.4694 7.87027 18.6158C7.65559 18.765 7.39831 18.976 7.08558 19.2319L7.71882 20.0058ZM6.86685 20.5671C7.02682 20.516 7.16231 20.4349 7.29013 20.3438C7.4139 20.2556 7.55529 20.1396 7.71882 20.0058L7.08558 19.2319C6.91177 19.3741 6.80016 19.4651 6.70988 19.5294C6.62367 19.5908 6.58408 19.6077 6.56256 19.6145L6.86685 20.5671ZM5.81406 20.5146C6.14708 20.6589 6.52113 20.6776 6.86685 20.5671L6.56256 19.6145C6.44732 19.6514 6.32263 19.6451 6.21163 19.597L5.81406 20.5146ZM5.02218 19.8713C5.17158 20.0207 5.30072 20.1503 5.4151 20.2503C5.53323 20.3536 5.65997 20.4479 5.81406 20.5146L6.21163 19.597C6.1909 19.5881 6.15318 19.5673 6.07351 19.4977C5.99008 19.4247 5.88808 19.323 5.72928 19.1642L5.02218 19.8713ZM4.12874 18.9779L5.02218 19.8713L5.72928 19.1642L4.83584 18.2708L4.12874 18.9779ZM4.12128 18.9703L4.1213 18.9703L4.84328 18.2784L4.84327 18.2784L4.12128 18.9703ZM3.48548 18.186C3.55224 18.3401 3.64644 18.4669 3.74978 18.585C3.84983 18.6994 3.97933 18.8285 4.12872 18.9779L4.83583 18.2708C4.67704 18.112 4.57541 18.01 4.50243 17.9266C4.43274 17.8469 4.41203 17.8092 4.40305 17.7885L3.48548 18.186ZM3.43297 17.1332C3.32252 17.479 3.34118 17.853 3.48548 18.186L4.40305 17.7885C4.35495 17.6775 4.34873 17.5528 4.38554 17.4375L3.43297 17.1332ZM3.99425 16.2813C3.86045 16.4448 3.74444 16.5862 3.65627 16.71C3.5652 16.8378 3.48407 16.9733 3.43297 17.1332L4.38554 17.4375C4.39242 17.416 4.40928 17.3764 4.4707 17.2902C4.53502 17.1999 4.626 17.0883 4.76821 16.9145L3.99425 16.2813ZM4.70706 15.2928C4.70457 15.3113 4.68729 15.3804 4.56307 15.5592C4.44163 15.7339 4.26079 15.9555 3.99425 16.2813L4.76821 16.9145C5.02407 16.6018 5.23504 16.3445 5.38423 16.1298C5.53066 15.9192 5.66286 15.6883 5.69813 15.4261L4.70706 15.2928ZM4.51478 14.8286C4.65761 14.9376 4.73101 15.1148 4.70706 15.2928L5.69813 15.4261C5.76998 14.892 5.54978 14.3604 5.12131 14.0335L4.51478 14.8286ZM3.3118 14.6337C3.73063 14.6755 4.01519 14.7044 4.22462 14.7421C4.43884 14.7806 4.49995 14.8173 4.51478 14.8286L5.12131 14.0335C4.91096 13.8731 4.65425 13.8033 4.40173 13.7579C4.14444 13.7116 3.81335 13.6788 3.41131 13.6386L3.3118 14.6337ZM2.31254 14.4281C2.46178 14.5051 2.61494 14.5435 2.76972 14.5695C2.91957 14.5947 3.10158 14.6126 3.3118 14.6337L3.41131 13.6386C3.18786 13.6163 3.04461 13.6017 2.93531 13.5833C2.83092 13.5658 2.791 13.5497 2.77093 13.5394L2.31254 14.4281ZM1.60519 13.6465C1.73865 13.9841 1.98996 14.2618 2.31254 14.4281L2.77093 13.5394C2.6634 13.4839 2.57963 13.3914 2.53515 13.2789L1.60519 13.6465ZM1.50012 12.6318C1.50012 12.8431 1.49986 13.0259 1.50999 13.1776C1.52045 13.3341 1.54345 13.4904 1.60519 13.6465L2.53515 13.2789C2.52684 13.2578 2.51482 13.2165 2.50777 13.1109C2.50038 13.0003 2.50012 12.8563 2.50012 12.6318H1.50012ZM1.50012 11.3683V12.6318H2.50012V11.3683H1.50012ZM1.60525 10.3533C1.54347 10.5095 1.52046 10.6658 1.50999 10.8224C1.49986 10.9741 1.50012 11.157 1.50012 11.3683H2.50012C2.50012 11.1437 2.50038 10.9997 2.50777 10.8891C2.51483 10.7834 2.52685 10.7421 2.53516 10.7211L1.60525 10.3533ZM2.31241 9.57193C1.98993 9.73829 1.7387 10.0159 1.60525 10.3533L2.53516 10.7211C2.57965 10.6086 2.66339 10.5161 2.77088 10.4606L2.31241 9.57193ZM3.31192 9.36633C3.10164 9.38735 2.91959 9.4053 2.76969 9.43047C2.61488 9.45647 2.46168 9.49492 2.31241 9.57193L2.77088 10.4606C2.79096 10.4503 2.83089 10.4342 2.9353 10.4167C3.04464 10.3983 3.18792 10.3837 3.41142 10.3614L3.31192 9.36633ZM3.36168 9.36384H3.36167V10.3638H3.36168V9.36384ZM3.36168 9.36384H3.36168V10.3638H3.36168V9.36384ZM4.51522 9.17132C4.50038 9.18265 4.43926 9.21933 4.22499 9.25789C4.0155 9.2956 3.73087 9.32443 3.31193 9.36633L3.41143 10.3614C3.81358 10.3211 4.14476 10.2884 4.40212 10.2421C4.65471 10.1966 4.91147 10.1268 5.12186 9.9663L4.51522 9.17132ZM4.70744 8.70725C4.73136 8.88524 4.65798 9.06238 4.51522 9.17132L5.12186 9.9663C5.55016 9.63946 5.77028 9.10804 5.69854 8.57408L4.70744 8.70725ZM3.99442 7.71844C4.26105 8.04432 4.44194 8.26599 4.56342 8.4408C4.68768 8.61959 4.70496 8.68875 4.70744 8.70725L5.69854 8.57408C5.66329 8.31178 5.53106 8.08087 5.3846 7.87012C5.23536 7.65537 5.02432 7.39802 4.76838 7.0852L3.99442 7.71844ZM4.02784 7.75537L4.02785 7.75537L4.73495 7.04827L4.73495 7.04826L4.02784 7.75537ZM3.43295 6.86614C3.48405 7.02617 3.5652 7.16171 3.6563 7.28959C3.74451 7.4134 3.86057 7.55484 3.99442 7.71843L4.76838 7.0852C4.62611 6.91132 4.53509 6.79966 4.47075 6.70935C4.4093 6.6231 4.39244 6.58349 4.38557 6.56197L3.43295 6.86614ZM3.48544 5.81371C3.34124 6.14663 3.3226 6.52052 3.43295 6.86614L4.38557 6.56197C4.34878 6.44676 4.355 6.32213 4.40306 6.21116L3.48544 5.81371ZM4.1289 5.02154C3.97945 5.17099 3.8499 5.30018 3.74981 5.41459C3.64644 5.53276 3.55221 5.65955 3.48544 5.81371L4.40306 6.21116C4.41205 6.19042 4.43276 6.15269 4.50248 6.07299C4.57549 5.98953 4.67716 5.88749 4.83601 5.72864L4.1289 5.02154ZM5.02222 4.12821L4.1289 5.02154L4.83601 5.72864L5.72933 4.83532L5.02222 4.12821ZM5.02223 4.12821L5.02222 4.12821L5.72933 4.83532L5.72933 4.83532L5.02223 4.12821ZM5.8141 3.48494C5.66001 3.55171 5.53327 3.64591 5.41514 3.74925C5.30077 3.8493 5.17163 3.97881 5.02223 4.12821L5.72933 4.83532C5.88813 4.67653 5.99013 4.57489 6.07356 4.50191C6.15323 4.43221 6.19095 4.4115 6.21167 4.40251L5.8141 3.48494ZM6.8669 3.43243C6.52117 3.32199 6.14713 3.34065 5.8141 3.48494L6.21167 4.40251C6.32268 4.35442 6.44736 4.3482 6.5626 4.38501L6.8669 3.43243ZM7.71894 3.99378C7.55538 3.85997 7.41398 3.74394 7.2902 3.65575C7.16237 3.56467 7.02687 3.48354 6.8669 3.43243L6.5626 4.38501C6.58412 4.39188 6.62371 4.40874 6.70994 4.47018C6.80023 4.53451 6.91187 4.62551 7.0857 4.76774L7.71894 3.99378ZM8.7073 4.70654C8.68882 4.70405 8.61969 4.68676 8.44097 4.56255C8.26625 4.44111 8.04467 4.26029 7.71894 3.99378L7.0857 4.76774C7.39838 5.02357 7.65562 5.23451 7.87025 5.38369C8.0809 5.5301 8.31169 5.66229 8.57383 5.69759L8.7073 4.70654ZM9.17161 4.51421C9.06264 4.6571 8.88538 4.73052 8.7073 4.70654L8.57383 5.69759C9.10809 5.76954 9.63987 5.54927 9.96677 5.12062L9.17161 4.51421ZM9.36647 3.31156C9.3246 3.73027 9.29578 4.01474 9.25811 4.22412C9.21957 4.43828 9.18292 4.49938 9.17161 4.51421L9.96677 5.12062C10.1272 4.9103 10.1969 4.65366 10.2423 4.40122C10.2886 4.14399 10.3213 3.81299 10.3615 3.41106L9.36647 3.31156ZM9.36399 3.36131V3.36131H10.364V3.36131H9.36399ZM9.57191 2.31256C9.49497 2.46176 9.45655 2.61489 9.43058 2.76962C9.40542 2.91943 9.38749 3.10139 9.36647 3.31155L10.3615 3.41106C10.3838 3.18768 10.3984 3.04447 10.4168 2.93519C10.4343 2.83083 10.4504 2.79092 10.4607 2.77085L9.57191 2.31256ZM10.3537 1.60501C10.0161 1.73847 9.7383 1.98986 9.57191 2.31256L10.4607 2.77085C10.5162 2.66329 10.6088 2.57949 10.7213 2.535L10.3537 1.60501ZM11.3682 1.5C11.157 1.5 10.9742 1.49974 10.8226 1.50986C10.666 1.52031 10.5099 1.54331 10.3537 1.60501L10.7213 2.535C10.7423 2.5267 10.7836 2.51469 10.8892 2.50764C10.9998 2.50026 11.1437 2.5 11.3682 2.5V1.5ZM12.6319 1.5H11.3682V2.5H12.6319V1.5ZM13.6467 1.60507C13.4905 1.54333 13.3343 1.52033 13.1777 1.50987C13.0261 1.49974 12.8432 1.5 12.6319 1.5V2.5C12.8565 2.5 13.0004 2.50026 13.111 2.50764C13.2167 2.5147 13.258 2.52672 13.279 2.53502L13.6467 1.60507ZM14.4283 2.31242C14.2619 1.98984 13.9842 1.73852 13.6467 1.60507L13.279 2.53502C13.3915 2.57951 13.4841 2.66328 13.5395 2.7708L14.4283 2.31242ZM15.5001 12C15.5001 13.933 13.9331 15.5 12.0001 15.5V16.5C14.4854 16.5 16.5001 14.4853 16.5001 12H15.5001ZM12.0001 8.5C13.9331 8.5 15.5001 10.067 15.5001 12H16.5001C16.5001 9.51472 14.4854 7.5 12.0001 7.5V8.5ZM8.50012 12C8.50012 10.067 10.0671 8.5 12.0001 8.5V7.5C9.51484 7.5 7.50012 9.51472 7.50012 12H8.50012ZM12.0001 15.5C10.0671 15.5 8.50012 13.933 8.50012 12H7.50012C7.50012 14.4853 9.51484 16.5 12.0001 16.5V15.5Z" fill="#E5F7F8"/>
</g>
</svg>
